<mxfile host="app.diagrams.net" agent="Mozilla/5.0 (Windows NT 10.0; Win64; x64) AppleWebKit/537.36 (KHTML, like Gecko) Chrome/136.0.0.0 Safari/537.36" version="27.1.3">
  <diagram name="第 1 页" id="_IeUftwzyVToKqxpuLL5">
    <mxGraphModel dx="1042" dy="631" grid="0" gridSize="10" guides="1" tooltips="1" connect="1" arrows="1" fold="1" page="0" pageScale="1" pageWidth="827" pageHeight="1169" math="0" shadow="0">
      <root>
        <mxCell id="0" />
        <mxCell id="1" parent="0" />
        <mxCell id="QU-Jpv-dRH1WVSwRePqp-1" value="&lt;div&gt;前提：Launcher提供了SDK&lt;/div&gt;&lt;div&gt;&lt;br&gt;&lt;/div&gt;1、三方接入Launcher SDK&lt;div&gt;&amp;nbsp; &amp;nbsp; &amp;nbsp; 三方接入SDK，按照SDK的要求实现相关功能逻辑&lt;/div&gt;&lt;div&gt;2、Launcher接入三方SDK&lt;/div&gt;&lt;div&gt;&amp;nbsp; &amp;nbsp; &amp;nbsp; 三方已经有数据相关的SDK，那么就由Launcher来接入三方SDK，进行适配，但是对外数据传递也是基于Launcher SDK，这样1和2就统一了，无法就是谁来适配Launcher的SDK而已&lt;/div&gt;" style="text;html=1;align=left;verticalAlign=middle;whiteSpace=wrap;rounded=0;" vertex="1" parent="1">
          <mxGeometry x="22" y="102" width="396" height="132" as="geometry" />
        </mxCell>
      </root>
    </mxGraphModel>
  </diagram>
</mxfile>
